<svg xmlns="http://www.w3.org/2000/svg" viewBox="0 0 108 108"><defs><style>.cls-1{fill:#fcfcfc;opacity:0;}.cls-2{fill:#262727;}.cls-3{fill:#ffe300;}.cls-4{fill:#fff;}.cls-5{opacity:0.2;}</style></defs><title>5</title><g id="图层_2" data-name="图层 2"><rect class="cls-1" width="108" height="108"/><g id="_5" data-name="5"><path class="cls-2" d="M43.06,84a36.43,36.43,0,0,0-2,4.34c-.59,1.61-.41,3.72,1,4.66a3.46,3.46,0,0,0,3.72-.23,7.65,7.65,0,0,0,2.42-3.07,20.37,20.37,0,0,0,2-6.8l2.43,6.16A10.67,10.67,0,0,0,49.5,90a3.18,3.18,0,0,0-1.87,3.13c.12,1.65,2,3.08,3.61,3.61,3.83,1.29,8.38.32,12.4-.09a2.77,2.77,0,0,0,2,3.42,4.08,4.08,0,0,0,4-2,14.07,14.07,0,0,0,1.77-4.85,7.71,7.71,0,0,0,3.11,3,11.24,11.24,0,0,0,4.35.88c2.21,0,3.93-1.34,6-2.21a1.75,1.75,0,0,1,1-.2c.47.08.78.52,1.14.84,1.11,1,3,1.43,4,.33s1-4.18.16-5.43S89.22,89.3,87.93,89a13.89,13.89,0,0,0-7.11.72c1.37-3,.85-7.56-.5-10.57a27.61,27.61,0,0,0-4.78-7.33,17.64,17.64,0,0,0-4.15-3.21c-1.57-.89-3.36-.67-5.17-.69a46.16,46.16,0,0,0-14.27,2.54c-2,.65-4.68,1.16-6.44,2.41C43.94,74,44,75.31,44.42,76.94,45,79.24,44.14,81.91,43.06,84Z"/><path class="cls-3" d="M60.51,83.45l2.57-.57c.2-.06.29-.19.18-.3s-.07-.12,0-.13c.59.09.91,1,1,1.55a.49.49,0,0,1-.38.58l-5.29,1.18h0q-.73.07-.83-.44l-.17-.74a1.13,1.13,0,0,1,.22-.92l2.41-3.26-2.92.65a.49.49,0,0,1-.59-.37c-.17-.57-.26-1.49.24-1.82.1,0,.1.07.09.1s.09.23.29.2L61,78.34a8.22,8.22,0,0,0,1.56-.42c.14-.07.21-.06.21.07a2.92,2.92,0,0,0,.13.75,1.66,1.66,0,0,1-.37,1.84l-2,2.84Z"/><path class="cls-2" d="M61.53,86.49A4.28,4.28,0,0,0,61.08,88a2.77,2.77,0,0,0,1.39,2.44,4.2,4.2,0,0,0,2.86.44,5.7,5.7,0,0,0,2.55-1.15,6.75,6.75,0,0,0,2.21-6.4,5.74,5.74,0,0,0-1.94-3.52c-1.13-.9-3.82-1.56-4.27.34A35,35,0,0,1,61.53,86.49Z"/><path class="cls-2" d="M17.22,55.23a30.06,30.06,0,0,0,4.19,9.33,23.36,23.36,0,0,0,10.82,8.37,33.86,33.86,0,0,0,14,2.36A81.59,81.59,0,0,0,57,74.06a53.09,53.09,0,0,0,14.23-4.68c7.23-3.67,9.25-6.48,11.58-9.35a25,25,0,0,0,4.43-10.87c.61-5.63-.65-10.52-3-15.63-1.27-2.72-3.11-5.35-3.14-8.36,0-2.49,1.2-4.83,1.76-7.27a1.83,1.83,0,0,0,.05-.83c-.15-.61-.42-1.26-1.07-1.34-2.55-.31-5.18,2.14-7.53,3.09-.43.17-1-.17-1.41-.3-.75-.22-.6-.87-.46-1.54a14.69,14.69,0,0,1,1.87-4.5c.68-1.27,1.52-3.67.08-4.61A2.78,2.78,0,0,0,72,7.62c-4.64,1.57-8.6,4-14.25,8a.66.66,0,0,1-1-.74c.16-.41.37-.82.56-1.22.43-.89.71-2.06,0-2.74-1.57-1.53-6.78.56-8.9,1.37A71.26,71.26,0,0,0,27.73,23.92c-6,5.08-10.6,13.53-11.13,21.5A28.8,28.8,0,0,0,17.22,55.23Z"/><path d="M16.62,55.4c2.29,8.51,7.65,15.22,16,18.35,8.95,3.36,19,2.42,28.09.15C68.22,72,76.22,68.63,81.43,62.68c4.87-5.56,7.37-12.46,6.35-19.88a38.45,38.45,0,0,0-4.31-12.13c-1.26-2.47-2.13-4.81-1.52-7.6.41-1.88,1.81-4.07,1.55-6-.49-3.74-5.13-1.24-7-.17-.68.4-2.19,1.65-3,1.19-1.13-.61,0-2.8.38-3.52.72-1.52,1.78-3,1.88-4.72A2.62,2.62,0,0,0,74.24,7.1c-1.58-.68-3.27.18-4.73.79A58.93,58.93,0,0,0,58.94,14c-.28.19-1.15,1.18-1.35.37,0-.15.37-.77.43-.94a3.58,3.58,0,0,0,.24-1.83A2.33,2.33,0,0,0,56,9.77c-3-.33-6.21,1.27-8.89,2.33-8.83,3.48-18.27,8.35-24.21,16S14.29,45.93,16.62,55.4c.19.78,1.4.45,1.21-.33-2-8.25,0-17.17,4.6-24.19s11.95-11.56,19.3-15.09a74.32,74.32,0,0,1,10-4.07c1.2-.37,3.1-1.1,4.38-.68,2.3.76-.42,3-.08,4.34a1.34,1.34,0,0,0,2,.77c1.85-.86,3.58-2.48,5.32-3.58,1.39-.88,2.82-1.71,4.28-2.45s4.29-2.49,6-1.72c.8.36.9.57.87,1.45a4.85,4.85,0,0,1-.37,1.44A23.6,23.6,0,0,1,73,13.51a9.06,9.06,0,0,0-1.34,4.23,2,2,0,0,0,2.07,1.71c1.46.14,3.12-1.33,4.32-2a8.7,8.7,0,0,1,2.56-1.06c1.88-.35,1.67,1.18,1.31,2.45a26.45,26.45,0,0,0-1.46,5.75c-.24,4.08,2.64,7.67,4.1,11.28,3.06,7.55,3.05,16-1.59,22.89-3.7,5.52-9.39,9.17-15.46,11.63a58.75,58.75,0,0,1-14.94,3.73c-5,.62-10.1.9-15.1-.23A27,27,0,0,1,25,67.72a26.3,26.3,0,0,1-7.14-12.65A.63.63,0,0,0,16.62,55.4Z"/><path class="cls-4" d="M34.3,63.69a8.16,8.16,0,0,0,3-.81c2.19-1.22,2.91-4.1,2.78-5.76a1.74,1.74,0,0,0-.32-.91,3.12,3.12,0,0,0-1.75,0c-6.35,1.22-8.64,1.45-14.11,2.26-.91.14-.75,1.18-.13,1.75C26.52,62.76,29.75,64,34.3,63.69Z"/><path d="M34.3,64.31c3.72-.36,6.51-3,6.39-6.89-.06-1.94-1.17-2.1-2.88-1.82-2.33.38-4.64.86-7,1.22-2,.31-4.06.59-6.08.89-1.44.21-2.87.88-1.8,2.55.89,1.38,2.92,2.42,4.39,3a16,16,0,0,0,7,1c.8,0,.81-1.29,0-1.25a13.68,13.68,0,0,1-8.82-2.23c-.53-.38-2-1.28-1.18-1.81a7.17,7.17,0,0,1,2.24-.33l3.81-.55q1.84-.28,3.68-.59l2.32-.41c.66-.12,2.37-.71,2.9-.3.78.62-.25,3.11-.61,3.75a5.17,5.17,0,0,1-4.34,2.47C33.51,63.14,33.5,64.39,34.3,64.31Z"/><path class="cls-4" d="M59.73,59.11A10.88,10.88,0,0,1,56,60a6.78,6.78,0,0,1-6.38-5.15,1.12,1.12,0,0,1,0-.83A6.21,6.21,0,0,1,52,52.89c7.78-2.11,9.2-2.68,16.39-4.65,1.11-.3,1.84.12,1.47,1.1C68.4,53.31,65,57,59.73,59.11Z"/><path d="M59.56,58.51c-2,.76-4.09,1.21-6.09.2a6,6,0,0,1-2.15-1.86c-.41-.57-1.4-1.91-1-2.62.25-.5,2.36-.85,2.82-1l2.9-.8q2.3-.65,4.6-1.33l4.21-1.22,2.64-.74c.33-.09,1.61-.6,1.82,0a6,6,0,0,1-.63,1.42,17.62,17.62,0,0,1-9.08,7.91c-.73.31-.41,1.52.33,1.21a19.35,19.35,0,0,0,9.29-7.53c.57-.93,1.89-2.85,1.23-4-.8-1.36-3-.35-4.06,0-3.57,1-7.11,2.07-10.68,3.07-1.92.54-4.33.81-6,1.91-1.2.78-.59,2.14-.07,3.21,2,4.13,6.31,4.88,10.31,3.36C60.64,59.43,60.32,58.22,59.56,58.51Z"/><path d="M52,49.19c.26.62-.69,1.13-1.46,1.42a5.05,5.05,0,0,1-2.17.24c-.45,0-1-.28-.94-.76a.83.83,0,0,1,.45-.55C51.36,47.74,52,49.19,52,49.19Z"/><path d="M51.44,49.35c.15.63-2.2.92-2.51.92-.49,0-1.14,0-.41-.37A6.55,6.55,0,0,1,50,49.36a2.29,2.29,0,0,1,1.36,0c.18.07.17.13.19.16.34.7,1.38.09,1-.61a1.8,1.8,0,0,0-1.4-.82,4.23,4.23,0,0,0-1.74.19,4.4,4.4,0,0,0-2.34,1.24,1.14,1.14,0,0,0,.21,1.55,3.1,3.1,0,0,0,2.21.4C50.7,51.35,53,50.63,52.6,49,52.43,48.28,51.26,48.6,51.44,49.35Z"/><path d="M36.75,51.36a3.8,3.8,0,0,1,2.89-.09c.28.12.59.33.6.64a1,1,0,0,1-.51.74,4.57,4.57,0,0,1-2.48.54A2.89,2.89,0,0,1,36.18,53,.63.63,0,0,1,35.9,52,2.5,2.5,0,0,1,36.75,51.36Z"/><path d="M36.91,51.94a3.5,3.5,0,0,1,2.3-.19c.91.31-.67.74-1,.79a5.18,5.18,0,0,1-1.48,0c-.73-.13,0-.5.35-.68.71-.32.09-1.36-.61-1s-1.81,1.36-1.11,2.29,2.33.74,3.31.56,2.74-1,2.06-2.3-3-1-4.11-.61C35.86,51,36.18,52.2,36.91,51.94Z"/><path d="M50.13,63.64a26.22,26.22,0,0,1-7.43,1.42c-.8,0-.81,1.29,0,1.25a27.39,27.39,0,0,0,7.76-1.47c.76-.26.43-1.47-.33-1.21Z"/><path d="M63.14,78.17c.57,2.14-.28,4.28-1.25,6.15-.71,1.37-1.5,2.91-1.2,4.5.52,2.82,3.87,3.57,6.14,2.33,5.49-3,6.05-11.58,4.29-16.82-.26-.76-1.46-.43-1.21.33,1.57,4.66,1.25,11.83-3.1,15-1.21.89-3.1,1.27-4.28.1-1.38-1.35-.27-3.45.44-4.83,1.13-2.18,2-4.64,1.38-7.12a.63.63,0,0,0-1.21.33Z"/><path d="M43.66,75.94a19.91,19.91,0,0,1-.43,6A43.21,43.21,0,0,1,41,86.66c-.9,2.09-2.09,5.32.3,6.93s4.94.18,6.45-1.76c2.34-3,3.05-6.81,3.25-10.54,0-.8-1.21-.8-1.25,0a18.3,18.3,0,0,1-2.34,8.82A5.78,5.78,0,0,1,44.12,93c-2,.46-3.2-1.33-2.89-3.14.38-2.25,1.81-4.16,2.72-6.21,1.08-2.45,1-5.06,1-7.68a.63.63,0,0,0-1.25,0Z"/><path d="M49.74,82.36a16.78,16.78,0,0,0,3,7.34l.54-.94c-2,.05-4.35.46-5.65,2.15a3.69,3.69,0,0,0,.26,4.45c1.51,1.93,4.16,2.36,6.45,2.58A33.66,33.66,0,0,0,64,97.22l-.77-.77a3.15,3.15,0,0,0,3.49,4.34c2.78-.49,4.58-3.67,4.84-6.27.24-2.43-1.33-3.45-3.58-3.76a48.23,48.23,0,0,0-7.15-.17.63.63,0,0,0,0,1.25c2.47,0,5.33-.37,7.73.3,1.08.3,1.78.62,1.79,1.81a6.32,6.32,0,0,1-.81,3,4.64,4.64,0,0,1-3,2.63c-1.8.31-2.67-1.2-2.11-2.75.18-.48-.34-.85-.77-.77-3.95.77-8.63,1.44-12.54.06-1.54-.54-3.72-2.25-2.71-4.16.84-1.59,3.28-1.87,4.84-1.91.42,0,.84-.54.54-.94a16,16,0,0,1-2.89-7c-.14-.79-1.35-.46-1.21.33Z"/><path d="M72.18,69.59c5.78,4.5,10.9,12.72,8,20.17-.29.75.91,1.07,1.21.33,3.07-7.84-2.2-16.63-8.31-21.39-.63-.49-1.52.39-.88.88Z"/><path d="M80.78,90.86a12.36,12.36,0,0,1,5.7-1.51c1.46,0,3.66.32,4.29,1.88.54,1.35.15,4.07-1.35,4.55S87.62,94.26,86.18,94a3.09,3.09,0,0,0-2.3.81,10.77,10.77,0,0,1-3,1.35c-3.68,1-8.56-.37-9.38-4.58-.15-.79-1.36-.45-1.21.33.85,4.38,5.73,6.42,9.79,5.71a11.9,11.9,0,0,0,4.44-1.73c.47-.31,1-.9,1.66-.56.25.12.55.67.72.87A3,3,0,0,0,89,97.28c3.18.14,4-5.27,2.52-7.28-1-1.34-2.85-1.73-4.41-1.87a13.42,13.42,0,0,0-6.95,1.65c-.73.34-.09,1.42.63,1.08Z"/><path d="M49.35,90.81c1.75-1,4.38-.84,6.34-.67.8.07.8-1.18,0-1.25-2.19-.18-5-.32-7,.85a.63.63,0,0,0,.63,1.08Z"/><path d="M71.56,92a3.82,3.82,0,0,1,1.37-3.86c.63-.5-.26-1.38-.88-.88a5.05,5.05,0,0,0-1.7,5.07c.18.78,1.39.45,1.21-.33Z"/><path d="M24.38,22.13a34.9,34.9,0,0,0-6.92,9.06c-.36.72.72,1.35,1.08.63A33.86,33.86,0,0,1,25.27,23c.57-.56-.31-1.45-.88-.88Z"/><path d="M22.17,21.47a23.62,23.62,0,0,0-4.51,4.94c-.46.67.63,1.29,1.08.63a22.5,22.5,0,0,1,4.31-4.69c.62-.51-.27-1.39-.88-.88Z"/><path d="M82.74,80.25a7.56,7.56,0,0,1,.7,3.23.63.63,0,0,0,1.25,0,9,9,0,0,0-.87-3.86c-.34-.73-1.42-.09-1.08.63Z"/><path d="M84.59,79.11a7.56,7.56,0,0,1,.7,3.23.63.63,0,0,0,1.25,0,9,9,0,0,0-.87-3.86c-.34-.73-1.42-.09-1.08.63Z"/><path d="M38.13,88.53a6,6,0,0,0-.19,4.11c.23.77,1.44.44,1.21-.33a4.93,4.93,0,0,1,.19-3.44c.31-.74-.9-1.06-1.21-.33Z"/><g class="cls-5"><path class="cls-4" d="M42.39,16.52A35.54,35.54,0,0,0,26.91,26.66a.43.43,0,0,0,.61.61,68,68,0,0,1,7.21-6,67.68,67.68,0,0,1,7.76-4.46.14.14,0,0,0-.11-.26Z"/></g><g class="cls-5"><path class="cls-4" d="M24.59,30A3.87,3.87,0,0,0,22,33.16a.51.51,0,0,0,.92.39c.35-.54.68-1.06,1-1.61a16.84,16.84,0,0,0,1-1.58.25.25,0,0,0-.28-.36Z"/></g></g></g></svg>