<svg xmlns="http://www.w3.org/2000/svg" viewBox="0 0 108 108"><defs><style>.cls-1{fill:#fcfcfc;opacity:0;}.cls-2{fill:#828282;opacity:0.67;}.cls-3{fill:#262727;}.cls-4{fill:#ffd300;}.cls-5{fill:#fff;}</style></defs><title>8</title><g id="图层_2" data-name="图层 2"><rect class="cls-1" width="108" height="108"/><g id="_8" data-name="8"><ellipse class="cls-2" cx="55.95" cy="97.67" rx="3.52" ry="16.13" transform="translate(-42.06 153.03) rotate(-89.65)"/><path class="cls-3" d="M42.76,69.95a14,14,0,0,0-4.48,1.95c-1.08.79-.45.56-1.53,1.35A19.89,19.89,0,0,0,34,76a6.43,6.43,0,0,0-.93,2.75,9.83,9.83,0,0,0,0,4,3.74,3.74,0,0,0,2.59,2.51A5,5,0,0,0,40,85c1.22-.68,2.49-1.92,2.11-3.27-.16-.55-.57-1-.68-1.56a2.69,2.69,0,0,1,.46-1.77,11.94,11.94,0,0,1,2.25-2.87A13.63,13.63,0,0,0,44.38,88c-1.16.56-2.27,2.27-1.86,3.49a10.06,10.06,0,0,0,1.62,2.38c-1.26.29-3,1.47-2.79,2.75.15.89,1.43,1.43,2.28,1.73a9.19,9.19,0,0,0,4.67.3,6.81,6.81,0,0,0,2.22-1c.65-.4.68-1,.59-1.76-.14-1.16-1.09-2.28-.6-3.34a1.45,1.45,0,0,1,1.24-.73,6,6,0,0,1,1.5.19,16.59,16.59,0,0,0,8-1l.38,3.11c-1.19.15-2.53,1.13-2.54,2.33,0,.27.38.68.53.9a3.31,3.31,0,0,0,.92,1c2.6,1,4.33.61,7-.23A6.42,6.42,0,0,0,70,96.35a2.08,2.08,0,0,0,.09-.92c-.1-1.92-.49-3.46-.58-5.38,1.18-.88,2.73-2,3.91-2.86a8.21,8.21,0,0,0,3.17-5.43c.2-1.66-1-2.4-1.28-3.12-1.08-2.6-1.21-3.91-2.3-6.52,2.8-1.43,6-4.54,7.82-6a4.91,4.91,0,0,0,4.06-.31,2.7,2.7,0,0,0,1.44-1.65c.2-1.08-.47-2.64,0-3.63.32-.68.82-.48,1.52-.75s1.67-1.17,1.55-1.91c-.09-.53-.57-.67-1.1-.75a6.82,6.82,0,0,0-1.84.29,38,38,0,0,0-4.63.71c-1.49.47-2.93,1.66-3,3.23a22.26,22.26,0,0,0-5.16,1.44,48.62,48.62,0,0,1-10.8,4,72.72,72.72,0,0,1-8,1.3L44.61,69.29C43.87,69.38,43.18,69.34,42.76,69.95Z"/><path class="cls-4" d="M52.27,79.92,55,79.86c.22,0,.33-.14.25-.28s0-.14.07-.13c.59.23.73,1.22.7,1.86a.52.52,0,0,1-.51.54L49.87,82h0q-.76-.08-.77-.64l0-.82a1.24,1.24,0,0,1,.42-.93l3.15-2.95-3.14.07a.52.52,0,0,1-.53-.52c-.06-.64,0-1.63.62-1.89.11,0,.09.09.07.13s0,.27.26.27l4-.09a8.32,8.32,0,0,0,1.69-.11c.15,0,.23,0,.2.12a3.28,3.28,0,0,0,0,.82A1.83,1.83,0,0,1,55,77.3l-2.68,2.58Z"/><path d="M44.09,68.87a17.48,17.48,0,0,0-9.64,5.95c-2,2.62-3.2,6.9-.79,9.65a5.23,5.23,0,0,0,8.26-.55c1.58-2.5-.59-5.59-3.32-5.54a.58.58,0,0,0,0,1.16,2.29,2.29,0,0,1,2.47,1.76c.59,1.89-1,3.37-2.7,3.73-3.56.74-5.33-2.93-4.69-5.93,1.06-4.93,6.2-7.95,10.72-9.11a.58.58,0,0,0-.31-1.12Z"/><path d="M51.53,92.48a24.27,24.27,0,0,0,9.62-.27c.73-.17.42-1.29-.31-1.12a22.65,22.65,0,0,1-9,.27c-.73-.12-1,1-.31,1.12Z"/><path d="M45.2,88.24a10.62,10.62,0,0,1-1.57-9.07,43.06,43.06,0,0,1,1.88-5.57c.28-.69-.85-1-1.12-.31A36.93,36.93,0,0,0,42.26,80a11.41,11.41,0,0,0,1.94,8.85c.41.62,1.42,0,1-.59Z"/><path d="M43.9,74.64c-1.77,1.81-4.06,3.9-2.82,6.63.31.68,1.31.09,1-.59-.94-2.06,1.35-3.91,2.64-5.22.52-.53-.3-1.36-.82-.82Z"/><path d="M33.11,73.53A9.8,9.8,0,0,0,35.31,78c.49.57,1.3-.26.82-.82a8.61,8.61,0,0,1-1.89-3.95c-.15-.73-1.27-.42-1.12.31Z"/><path d="M31,74.23a12,12,0,0,0,4.1,5.9c.58.45,1.41-.36.82-.82a11,11,0,0,1-3.8-5.39c-.23-.71-1.35-.41-1.12.31Z"/><path d="M44.06,88.6c2.32,2.83,5.78,3.76,9.29,4.1.74.07.74-1.09,0-1.16-3.22-.31-6.34-1.17-8.47-3.76-.47-.58-1.29.25-.82.82Z"/><path class="cls-3" d="M71.73,64.49A51.16,51.16,0,0,1,50.24,72a43.79,43.79,0,0,1-7.85.15,38.36,38.36,0,0,1-10-2.18,27.39,27.39,0,0,1-7.89-4.7,30.13,30.13,0,0,1-6.87-9c-2.51-4.93-3.4-8.38-3.07-17.61.06-1.8.23-1.85.27-2.84.09-2.5-.9-3.59-2.95-5.52-.91-.86-2.65-2.73-2.64-3.85,0-.91,1-1.49,1.87-1.57a30.72,30.72,0,0,1,4.74-.29c2.77.1,3.08.45,5.88.57l.53-.29c.62-.85-1.11-1.6-4.51-4.67-1.4-1.26-4.2-4.26-3.33-6.39.47-1.16,2.11-1.54,3.09-1.59,5.3-.28,8.55.79,16.2,3.36,1.28.43,2.67,1,2.66.1,0-.24-1.8-1.47-3.13-2.72a11.53,11.53,0,0,1-1.83-2.67,1.75,1.75,0,0,1,1.1-1.93c1.91-.73,3.72-.76,7.71-.52C49,8.45,52.78,8.27,60,10.18s14,5.24,18.8,10.88a29.75,29.75,0,0,1,7.17,21C85.15,51.76,78.55,60.23,71.73,64.49Z"/><path d="M71.44,64c-15.83,9.77-40.73,12.45-52-5.53-4-6.4-5.14-13.76-4.25-21.23a7.54,7.54,0,0,0-.28-4c-.68-1.6-2.12-2.68-3.29-3.9-.53-.55-1.6-1.46-1.71-2.26-.25-1.89,2.1-1.69,3.38-1.8a27.48,27.48,0,0,1,6,.3c1,.13,2.82.65,3.45-.48.37-.66-.09-1.3-.55-1.77-1.25-1.28-2.8-2.29-4.12-3.5s-3.31-3.07-3.32-5c0-3.51,8.1-1.82,10.1-1.34s3.81,1.07,5.69,1.69L34,16.36c.63.21,1.57.63,2.25.35,1-.43.61-1.35,0-1.89-1.32-1.2-3.71-2.49-4.19-4.38-.85-3.3,10.53-1.82,12-1.74,8.45.44,16.73,1.39,24.42,5.22a30.23,30.23,0,0,1,16.5,21.22c1.82,9.29-2,18.52-8.63,25A30.19,30.19,0,0,1,71.44,64c-.63.4,0,1.4.59,1,7.47-4.74,13.2-12.82,14.36-21.67,1.22-9.36-3-19.26-10-25.46C69.68,11.9,60.49,9,51.67,8,47,7.56,42.24,7.32,37.56,7.2c-1.87,0-7.91,0-6.69,3.45.68,1.91,2.48,3.3,4,4.52.23.19.61.65.91.76-.24-.09-.68-.4-1-.53s-.65-.22-1-.32c-1.29-.44-2.58-.87-3.88-1.29A35.36,35.36,0,0,0,19,11.65c-1.54,0-3.46,0-4.63,1.2s-.77,2.83-.1,4.12a15.85,15.85,0,0,0,3.87,4.45c.76.66,1.55,1.29,2.33,1.93.2.16,1.31.9,1.27,1.19s-4.42-.39-5.14-.43c-1.93-.13-4.63-.27-6.47.46-4.14,1.64,1.27,6,2.62,7.53s1.49,3.25,1.26,5.31a47.2,47.2,0,0,0-.09,7.37A27,27,0,0,0,16,54.35a31.16,31.16,0,0,0,7.67,11,29.29,29.29,0,0,0,13.18,6.54c9.39,2.07,19.4.54,28.16-3.26A55.22,55.22,0,0,0,72,65C72.66,64.6,72.07,63.59,71.44,64Z"/><path d="M69,29.74a7,7,0,0,1-.76,2.06c-.42,1-1.32,2.36-2.16,2.19-.17,0-.35,0-.49-.08a.92.92,0,0,1-.32-.78A6.21,6.21,0,0,1,67,28.55a1.16,1.16,0,0,1,1.24-.3S69.14,28.36,69,29.74Z"/><path d="M68.41,29.59a8.25,8.25,0,0,1-1.14,2.78c-.18.28-.74,1.26-1.22,1s-.23-.93-.18-1.27a5.17,5.17,0,0,1,1.29-2.91c.8-.78,1.28-.45,1.23.51,0,.75,1.12.74,1.16,0,.07-1.2-.54-2.2-1.83-2.11-1.77.12-2.77,2.82-3,4.28s.1,3.2,1.94,2.6c1.58-.51,2.61-3.15,2.86-4.61C69.66,29.17,68.54,28.85,68.41,29.59Z"/><path d="M52.91,35a5.55,5.55,0,0,0-2.44-.11c-.41.15-1,.59-.92,1a1,1,0,0,0,.56.8,6.73,6.73,0,0,0,5.07,1,2.27,2.27,0,0,0,.62-.34c.31-.28.16-.76-.17-1.11A6.74,6.74,0,0,0,52.91,35Z"/><path d="M53.06,34.43c-1.25-.28-3.7-.59-4.06,1.19s2.74,2.58,4,2.74c1.06.14,3.9.12,3.51-1.69-.3-1.38-2.26-2-3.44-2.24-.73-.17-1,.95-.31,1.12a8.65,8.65,0,0,1,1.21.37c.33.13,1.44.55,1.36,1.06-.05.34-1.28.28-1.56.28-.87,0-2.57-.25-3.18-1-1.1-1.26,1.73-.85,2.18-.75C53.48,35.72,53.79,34.6,53.06,34.43Z"/><path d="M63.41,50.6a3.19,3.19,0,0,1-1.88,3.62c-.68.3-.09,1.3.59,1a4.34,4.34,0,0,0,2.42-4.93c-.17-.73-1.29-.42-1.12.31Z"/><path d="M69.81,49.79c-1.59,1.7-4,2.31-6.21,2.75-.73.15-.42,1.27.31,1.12,2.4-.48,5-1.2,6.72-3,.51-.55-.31-1.37-.82-.82Z"/><path class="cls-4" d="M86.49,41.78A3.29,3.29,0,0,0,88,44.71a2,2,0,0,0-1.44,1A5.29,5.29,0,0,0,86,47.37a2.7,2.7,0,0,0-.22-1.86,4.09,4.09,0,0,0-1.24-1.44,1.63,1.63,0,0,0,1.27-.59,5.14,5.14,0,0,0,.73-1.68"/><path d="M85.91,41.78a4,4,0,0,0,1.81,3.43l.14-1.06c-1.53.29-2.13,1.68-2.47,3.06l1.12.31a3.89,3.89,0,0,0-1.6-3.87l-.41,1c1.56-.1,2.17-1.35,2.55-2.7a.58.58,0,0,0-1.12-.31c-.21.76-.47,1.79-1.43,1.85-.45,0-.84.65-.41,1a2.82,2.82,0,0,1,1.31,2.74c-.13.72.94,1,1.12.31.24-1,.52-2,1.66-2.25.53-.1.51-.8.14-1.06a2.8,2.8,0,0,1-1.23-2.43.58.58,0,0,0-1.16,0Z"/><path class="cls-4" d="M90.94,46a3.87,3.87,0,0,0,1.15,3.71,2.36,2.36,0,0,0-1.87.83,6.23,6.23,0,0,0-1.07,1.82,3.18,3.18,0,0,0,.14-2.21,4.81,4.81,0,0,0-1.14-1.93,1.92,1.92,0,0,0,1.59-.43A6.05,6.05,0,0,0,90.94,46"/><path d="M90.38,45.82a4.61,4.61,0,0,0,1.3,4.28l.41-1c-1.82,0-2.77,1.41-3.44,2.93l1.06.45a4.51,4.51,0,0,0-1.15-4.7l-.41,1c1.7.2,2.62-1.15,3.28-2.51.32-.67-.68-1.26-1-.59-.47,1-1,2.08-2.28,1.94-.54-.06-.7.65-.41,1a3.36,3.36,0,0,1,.85,3.57c-.24.61.8,1,1.06.45.48-1.08,1.07-2.35,2.44-2.36a.59.59,0,0,0,.41-1,3.38,3.38,0,0,1-1-3.15c.14-.73-1-1-1.12-.31Z"/><path d="M70.42,64.42a40.82,40.82,0,0,1-7.58,3.68c-.7.25-.4,1.37.31,1.12A42.33,42.33,0,0,0,71,65.42c.64-.39.05-1.4-.59-1Z"/><path class="cls-5" d="M81.05,29.78c.67,2.65-.43,6.18-2.67,8.68a9.46,9.46,0,0,1-9.1,2.95,2,2,0,0,1-1.11-.58c-.36-.44-.58-.59-.33-1.1a5.74,5.74,0,0,1,1.34-1.8,69.4,69.4,0,0,0,11-9.12S80.78,28.69,81.05,29.78Z"/><path d="M80.49,29.94c1.25,5.75-4.63,12.37-10.61,11-.93-.21-1.64-.56-1.19-1.55a4.6,4.6,0,0,1,1.72-1.62c1.18-.84,2.35-1.69,3.5-2.58s2.41-1.94,3.56-3q.91-.82,1.79-1.67A6.56,6.56,0,0,1,80,29.8c.36-.24.08-.91.45.14.25.7,1.37.4,1.12-.31-.31-.88-.86-1.68-1.82-1.23-.53.24-1.12,1.13-1.55,1.53L77.06,31q-1.41,1.28-2.89,2.49-1.66,1.35-3.41,2.6A13.87,13.87,0,0,0,68.27,38c-.85,1-1.57,2.18-.5,3.22s3.33,1.11,4.83.9a10.33,10.33,0,0,0,5.21-2.32,10.9,10.9,0,0,0,3.8-10.19C81.45,28.9,80.33,29.21,80.49,29.94Z"/><path class="cls-5" d="M58.62,42.9a1.53,1.53,0,0,1,1.15,1.49,9,9,0,0,1-4.84,7.06,12,12,0,0,1-8.81,1.11,32.09,32.09,0,0,1-8.25-2.68c-.48-.22-3.31-1.85-3-2.8.18-.56,4.76-1.33,5.24-1.43S45.47,44.37,55,43A8.18,8.18,0,0,1,58.62,42.9Z"/><path d="M58.32,43.4c2.27,1.05-.52,5-1.63,6a10.85,10.85,0,0,1-6.77,2.88c-3.83.24-8.48-1.28-11.88-3a10.4,10.4,0,0,1-1.62-1c-.22-.17-.72-.48-.81-.76s-.14-.13.29-.36a14.71,14.71,0,0,1,3.87-.88c1.46-.28,2.9-.62,4.36-.91,1.93-.38,3.87-.73,5.82-1.05q2-.34,4-.64c1.43-.22,3-.64,4.48-.23a.58.58,0,0,0,.31-1.12,8,8,0,0,0-3.24,0c-1.72.23-3.43.51-5.14.79-2.3.38-4.59.78-6.87,1.24s-4.55.87-6.78,1.41c-.94.23-2.81.49-2.41,1.87s2.18,2.22,3.25,2.76a30.62,30.62,0,0,0,7,2.42,15.94,15.94,0,0,0,7.67.34A11.26,11.26,0,0,0,59,48.42c1.11-1.75,2.35-4.88-.11-6C58.24,42.09,57.65,43.09,58.32,43.4Z"/><path d="M65.57,68.27c2.19-.93,4.22-2.14,6.33-3.24a30.63,30.63,0,0,1,8-2.84c.73-.15.42-1.27-.31-1.12a31.36,31.36,0,0,0-8,2.78C69.42,65,67.29,66.29,65,67.27c-.69.29-.09,1.29.59,1Z"/><path d="M79.07,61.67c.58-2.76,3.23-3.49,5.71-3.2.74.09.73-1.08,0-1.16-3-.35-6.15.8-6.83,4.05-.15.73,1,1,1.12.31Z"/><path d="M85.08,58.39c.56-.24,3.84-1.5,3.62-.12-.13.81-2.32,1.38-3,1.78a.59.59,0,0,0-.27.66A3.7,3.7,0,0,1,84.82,65c-1,.91-2.48.82-3.69.59-.73-.14-1,1-.31,1.12,1.59.3,3.6.37,4.82-.89a4.8,4.8,0,0,0,.94-5.4l-.27.66c1.12-.67,4.48-1.64,3.59-3.66-.81-1.84-4.23-.53-5.41,0-.68.3-.09,1.3.59,1Z"/><path class="cls-5" d="M83.19,36.87a9.8,9.8,0,0,1-5.9,7.38c-3.49,1.43-7.61.39-10.69-1.82a2.92,2.92,0,0,0-.9-.45,3.61,3.61,0,0,0-4,1.25,5.43,5.43,0,0,0-1.11,1.9c-.56,2.16-2.1,6.49-5.22,9A13,13,0,0,1,44.7,56.58c-8.6-1.43-12.5-9.92-12.5-9.92C52.57,41.54,68.64,38.32,81.52,26,81.52,26,84.13,32.09,83.19,36.87Z"/><path d="M82.63,36.72a9.22,9.22,0,0,1-12.35,7c-2.06-.72-3.78-2.64-6.07-2.43a5.06,5.06,0,0,0-4,3.3,39.41,39.41,0,0,1-2.37,5.8,11.82,11.82,0,0,1-6.48,5.31c-4.8,1.56-10.24,0-14-3.24a18.81,18.81,0,0,1-4.71-6.07l-.35.85c17.46-4.38,36.08-8,49.57-20.85l-1-.26c1.37,3.24,2.28,7.1,1.67,10.6-.13.73,1,1,1.12.31a20.68,20.68,0,0,0-1.67-11.22.59.59,0,0,0-1-.26C67.77,38.24,49.29,41.77,32,46.1a.59.59,0,0,0-.35.85c3,6.41,9.87,11,17,10.41,5.43-.44,9.33-4,11.4-8.89.88-2.06,1.23-5.51,3.9-6,1.51-.28,2.55.73,3.78,1.4a13.47,13.47,0,0,0,4.09,1.45A10.29,10.29,0,0,0,83.75,37C83.91,36.3,82.79,36,82.63,36.72Z"/><path d="M48.71,53.53a8.5,8.5,0,0,0,5.47-2.81c.92-1,3.55-3.84,3.53-7.67a96.44,96.44,0,0,1-20.2,5.46S40.66,54.67,48.71,53.53Z"/><path d="M48.87,54.09a11.77,11.77,0,0,0,9.43-11,.58.58,0,0,0-.74-.56A117.64,117.64,0,0,1,37.35,48a.59.59,0,0,0-.35.85c2.19,4.19,7.27,5.86,11.71,5.31.73-.09.74-1.25,0-1.16-4.05.51-8.69-.88-10.7-4.73l-.35.85a117.64,117.64,0,0,0,20.2-5.46L57.13,43A10.62,10.62,0,0,1,48.56,53C47.82,53.09,48.13,54.21,48.87,54.09Z"/><path d="M75,41.33A5.8,5.8,0,0,0,79.2,38a11.29,11.29,0,0,0,1-6.59c-3.36,3.08-8.74,6-12.83,8C67.34,39.41,70.85,42.25,75,41.33Z"/><path d="M75.18,41.89c4.65-1.16,6.09-6.17,5.58-10.47a.59.59,0,0,0-1-.41C76,34.34,71.5,36.71,67,38.91a.58.58,0,0,0-.12.91,10.32,10.32,0,0,0,8.24,2.06c.73-.14.42-1.26-.31-1.12A9.43,9.43,0,0,1,67.75,39l-.12.91c4.54-2.25,9.15-4.68,12.95-8.09l-1-.41c.45,3.77-.57,8.32-4.72,9.35A.58.58,0,0,0,75.18,41.89Z"/><path class="cls-5" d="M44.25,45.54l-.55,3c-.14.76,1,1.09,1.17.32l.55-3c.14-.76-1-1.09-1.17-.32Z"/><path class="cls-5" d="M47.33,44.71q-.48,2.88-1.15,5.73c-.18.76,1,1.08,1.17.32Q48,47.91,48.5,45c.13-.76-1-1.09-1.17-.32Z"/><path class="cls-5" d="M51.14,43.52l-.83,4.13c-.15.76,1,1.09,1.17.32l.83-4.13c.15-.76-1-1.09-1.17-.32Z"/><path class="cls-5" d="M71.38,35.25a13.24,13.24,0,0,1-.12,2.4c-.11.76,1.06,1.09,1.17.32a15,15,0,0,0,.16-2.72c0-.78-1.24-.78-1.21,0Z"/><path class="cls-5" d="M73.84,33.31a51.29,51.29,0,0,1-.31,5.49c-.09.77,1.13.77,1.21,0a51.29,51.29,0,0,0,.31-5.49.61.61,0,0,0-1.21,0Z"/><path class="cls-5" d="M76.52,32.1a27.32,27.32,0,0,1-.08,3.54c-.07.78,1.14.77,1.21,0a27.32,27.32,0,0,0,.08-3.54c0-.78-1.24-.78-1.21,0Z"/><path d="M60.63,90.13c.13,1.15.71,3,.4,4.08l.56-.43c-2.95,0-4.34,3.79-1.4,5.1,1.64.73,3.78.52,5.49.26,1.32-.2,3.11-.42,4-1.51s.84-3.45.68-4.85c-.07-.63-.23-1.24-.29-1.87s0-.53.34-.83c.76-.59,1.73-1,2.52-1.54,2.2-1.56,4.58-4.25,4.38-7.21-.09-1.42-1.34-2.23-1.87-3.41a18.38,18.38,0,0,1-.52-2.5,13.42,13.42,0,0,0-1.56-3.6c-.39-.64-1.4-.05-1,.59,1.16,1.89,1.28,3.74,2,5.75a18.17,18.17,0,0,0,1.48,2.32c.67,1.26,0,3.08-.69,4.25a10.76,10.76,0,0,1-3.8,3.49c-1,.64-2.17.77-2.39,2.12-.31,1.85.73,3.73.19,5.64s-3,2-4.7,2.16A9.39,9.39,0,0,1,61.09,98a1.53,1.53,0,0,1,.5-3,.59.59,0,0,0,.56-.43c.35-1.28-.21-3.08-.36-4.39-.09-.73-1.25-.74-1.16,0Z"/><path d="M80.43,65.64a26.82,26.82,0,0,1-9.75,6.84c-.69.27-.39,1.4.31,1.12a28,28,0,0,0,10.26-7.13c.51-.54-.31-1.36-.82-.82Z"/><path d="M43.81,87.65a4.1,4.1,0,0,0-1.89,2.93c-.14,1.52.87,2.69,1.79,3.79l.12-.91c-1.06.59-2,.65-2.62,1.74A2.36,2.36,0,0,0,41,97.52c1,1.8,4,2,5.72,1.91s3.85-.42,4.77-2.14A2.56,2.56,0,0,0,51.4,95c-.19-.38-1-1.12-.83-1.54s1.19-.88,1.52-1.13c.59-.46-.24-1.28-.82-.82s-2.07,1.14-2,2.26c0,.62.49.92.83,1.36a1.52,1.52,0,0,1-.41,2.41c-1.34,1-3.56.83-5.14.57-.87-.14-2.81-.42-2.54-1.87.21-1.1,1.6-1.31,2.42-1.77a.59.59,0,0,0,.12-.91c-.74-.89-1.65-1.86-1.41-3.1a3.34,3.34,0,0,1,1.51-2c.59-.46-.24-1.28-.82-.82Z"/><path d="M96.65,50.19a6.19,6.19,0,0,1-.8,3.67c-.23.36-.43.41-.44.84,0,1.13,1.74,2.69,2.32,3.53.35.51,1.19,0,.83-.49S97.65,56.57,97.2,56a7.07,7.07,0,0,1-.64-.94c-.28-.54-.21.06,0-.48s.58-1,.75-1.54a8,8,0,0,0,.33-2.82c0-.62-1-.62-1,0Z"/><path d="M98.47,52.86a8.18,8.18,0,0,1-.86,2.77A5.16,5.16,0,0,1,95,57.7c-.56.23-.32,1.17.26.93a6.67,6.67,0,0,0,2.94-2,7.92,7.92,0,0,0,1.25-3.47c.09-.61-.84-.87-.93-.26Z"/><path d="M95,53.47l3.49,0a.48.48,0,0,0,0-1l-3.49,0a.48.48,0,0,0,0,1Z"/><path d="M99.93,50.87h2.41l-.42-.72c-.36.78-1.32,2.06-1.27,2.93,0,.66.69,1.29.77,2a3.53,3.53,0,0,1-.77,2.8l.58-.08-.76-.34c-.56-.25-1.05.58-.49.83l.76.34a.51.51,0,0,0,.58-.08c1.25-1,1.28-3.32.75-4.65a8.17,8.17,0,0,0-.47-1c-.1-.17-.15.5,0,.22.06-.12.11-.25.17-.37.37-.67.65-1.41,1-2.1a.49.49,0,0,0-.42-.72H99.93a.48.48,0,0,0,0,1Z"/><path d="M98.9,54.21l4.45,0a.48.48,0,0,0,0-1l-4.45,0a.48.48,0,0,0,0,1Z"/><path d="M96.61,60.4A11.51,11.51,0,0,1,93.95,65a.48.48,0,0,0,.68.68,12.58,12.58,0,0,0,2.91-5c.2-.59-.73-.84-.93-.26Z"/><path d="M95.9,62.62l0,6a.48.48,0,0,0,1,0l0-6a.48.48,0,0,0-1,0Z"/><path d="M98.7,60.62a2.9,2.9,0,0,1-1.28,2.21c-.48.39.2,1.07.68.68a3.77,3.77,0,0,0,1.56-2.89.48.48,0,0,0-1,0Z"/><path d="M99.22,62.16c1.11,0,2.21,0,3.32,0l-.42-.72-.61,1.34c-.25.56.58,1,.83.49l.61-1.34a.49.49,0,0,0-.42-.72c-1.1.05-2.21,0-3.32,0a.48.48,0,0,0,0,1Z"/><path d="M99.8,63.4l0,5.37.61-.46L99,67.88c-.59-.19-.85.74-.26.93l1.35.43a.49.49,0,0,0,.61-.46l0-5.37a.48.48,0,0,0-1,0Z"/><path d="M98.27,65l-.56,1.65c-.2.59.73.84.93.26l.56-1.65c.2-.59-.73-.84-.93-.26Z"/><path d="M101.42,65.3l.64,1.61a.5.5,0,0,0,.59.34.48.48,0,0,0,.34-.59L102.35,65a.5.5,0,0,0-.59-.34.48.48,0,0,0-.34.59Z"/><path d="M94.3,72.7l0,3.38a.47.47,0,0,0,.46.46l1.43,0a.47.47,0,0,0,.46-.46V72.66a.47.47,0,0,0-.46-.46l-1.48,0a.46.46,0,0,0,0,.92l1.48,0-.46-.46V76l.46-.46-1.43,0,.46.46,0-3.38a.46.46,0,0,0-.92,0Z"/><path d="M98.38,70.35l-1.56,3.2a.47.47,0,0,0,.4.69l1.7,0-.4-.69-2.22,4.14a.46.46,0,0,0,.4.69h1.91a.46.46,0,0,0,0-.92H96.7l.4.69L99.32,74a.46.46,0,0,0-.4-.69l-1.7,0,.4.69,1.56-3.2c.26-.53-.53-1-.79-.46Z"/><path d="M98.15,76.72v1.66a.46.46,0,0,0,.92,0V76.72a.46.46,0,0,0-.92,0Z"/><path d="M99.72,73.21c.86,0,1.72,0,2.57,0l-.46-.46-.36,5.54.69-.4-1.08-.59c-.52-.29-1,.51-.46.79l1.08.59a.47.47,0,0,0,.69-.4l.36-5.54a.47.47,0,0,0-.46-.46c-.86,0-1.72,0-2.57,0-.59,0-.59.94,0,.92Z"/><path d="M100.53,70.59c-.09,2.45-.26,5.33-1.92,7.29-.38.45.27,1.1.65.65,1.84-2.18,2.09-5.2,2.19-7.94,0-.59-.9-.59-.92,0Z"/><path d="M101.16,39.21a13.09,13.09,0,0,1-4.17.53.48.48,0,0,0,0,1,14,14,0,0,0,4.42-.56c.59-.18.34-1.11-.26-.93Z"/><path d="M97,42.21l3.79-.13c.62,0,.62-1,0-1L97,41.25c-.62,0-.62,1,0,1Z"/><path d="M95.44,43.56l6.88-.14a.48.48,0,0,0,0-1l-6.88.14a.48.48,0,0,0,0,1Z"/><path d="M98.66,40.3c-.25,2.55-1.83,4.34-3.83,5.81-.49.36,0,1.2.49.83,2.3-1.69,4-3.72,4.31-6.64.06-.62-.9-.61-1,0Z"/><path d="M98.35,44.76l3.2-.07-.48-.48-.07,3.9a.48.48,0,0,0,1,0l.07-3.9a.49.49,0,0,0-.48-.48l-3.2.07a.48.48,0,0,0,0,1Z"/><path d="M98.46,46.08h2.68a.48.48,0,0,0,0-1H98.46a.48.48,0,0,0,0,1Z"/><path d="M98.6,47.37H101a.48.48,0,0,0,0-1H98.6a.48.48,0,0,0,0,1Z"/><path d="M97.15,44.7v3.21a.48.48,0,0,0,1,0h0a.48.48,0,0,0-1,0h1V44.7a.48.48,0,0,0-1,0Z"/><path d="M97.55,48.57l3.83.07a.48.48,0,0,0,0-1l-3.83-.07a.48.48,0,0,0,0,1Z"/></g></g></svg>