<svg xmlns="http://www.w3.org/2000/svg" viewBox="0 0 108 108"><defs><style>.cls-1{fill:#fcfcfc;opacity:0;}.cls-2{fill:#262727;}.cls-3{fill:#c92a2a;}.cls-4{fill:#fff;}.cls-5{fill:#ffe200;}.cls-6{opacity:0.2;}</style></defs><title>7</title><g id="图层_2" data-name="图层 2"><rect class="cls-1" width="108" height="108"/><g id="_7" data-name="7"><path class="cls-2" d="M54.51,12.62c-1-.93-2.53-.84-3.8-.42-5.2,1.71-7.83,7.3-11.39,11.46-2.55,3-6.1,5-8.88,7.79a35.14,35.14,0,0,0-9.87,21.06,27.25,27.25,0,0,0,7.23,21.62,29.27,29.27,0,0,0,14.13,8.31,39.25,39.25,0,0,0,4.68.93,36.66,36.66,0,0,0,5.11.21,85,85,0,0,0,9.94-1.09L62.11,84a15.69,15.69,0,0,0,2.16,4.13c6.1,8.32,15,11.14,25.27,11.38.1-5.45-.14-7.44.1-13.3.13-3.1-.16-6.29-.1-8.51,0-1.09.2-3.06.1-4.14-.45-5,.41-11.59.06-18-.22-4.09.13-8.48-.62-12.51-.41-2.17-1.1-2.24-1.94-4.27A20.51,20.51,0,0,0,79.79,30c.79-2.57,2.93-6.33,1.82-9.2C80.92,19,79.84,19,78,19.25A11.79,11.79,0,0,0,73,21.18c-1.09.72-1.82,1.34-2.63,1.79-.53.29-1.2.48-.9,0,1.34-2.42,1.74-5.15,2.45-8.36a3.15,3.15,0,0,0-.8-2.91c-1.6-1.61-3.87-.2-5.42,1.14l-4.6,4c-1,.89-2.74,4-4.22,3.86C53.86,20.4,56.25,14.28,54.51,12.62Z"/><path class="cls-3" d="M15.55,31.51a2.59,2.59,0,0,1,2.67,1.58,4.81,4.81,0,0,1,.68,3.22c-.32,1.07-.88,2.87-1.3,3.9a3.91,3.91,0,0,0-.41,2.51,4.63,4.63,0,0,1-2.75-1.27c-1.66-1.58-4.51-1.74-5.68-3.71a2,2,0,0,1-.06-2.12C9.88,34,12.92,35,12.92,35,14.26,34.17,13.42,31.91,15.55,31.51Z"/><path class="cls-3" d="M15.25,22.5a1.92,1.92,0,0,0-1.32,1.35,1.47,1.47,0,0,0,0,.84,2.08,2.08,0,0,0,.75.9,7.55,7.55,0,0,0,4.37,1.58.33.33,0,0,0,.39-.21,8.85,8.85,0,0,0,.94-5.18,2.05,2.05,0,0,0-.73-1.53,1.73,1.73,0,0,0-1.41-.1,1.69,1.69,0,0,0-.73.39c-.54.54-.11,1.42-.49,1.88S15.86,22.33,15.25,22.5Z"/><path d="M14.52,35.66C13.2,33,8.3,32.9,7.64,36.1A3.63,3.63,0,0,0,9.71,40c2.25,1.31,4.85,2,7.15,3.26.74.41,1.41-.73.67-1.14-2.32-1.28-5.12-1.94-7.33-3.37-1.33-.86-2.08-3.19,0-3.71a2.93,2.93,0,0,1,3.23,1.25c.38.76,1.51.09,1.14-.67Z"/><path d="M14.59,35.82c-.58-1.49-.43-4.33,2-3.8,1.9.42,2.19,2.34,1.78,3.89-.61,2.29-1.74,4.41-1.8,6.82a.66.66,0,0,0,1.32,0c.09-3.54,4.25-8.61.28-11.39a3.3,3.3,0,0,0-4,0c-1.49,1.19-1.49,3.26-.86,4.88.3.78,1.58.44,1.27-.35Z"/><path d="M18.22,23.28A2.94,2.94,0,0,0,15,22.08a2.3,2.3,0,0,0-1.6,2.63c.56,2.51,4.44,3.08,6.51,2.85.83-.09.84-1.41,0-1.32a6.73,6.73,0,0,1-4.54-1c-.48-.35-.9-.86-.58-1.46.47-.91,1.85-.6,2.35.12s1.62,0,1.14-.67Z"/><path d="M18.29,23.44c-.26-.75-.7-2.33.41-2.58a1.17,1.17,0,0,1,1.45.76c.5,1.42-.26,3.65-.86,4.95-.36.76.78,1.43,1.14.67.86-1.86,2.24-6-.06-7.38a2.76,2.76,0,0,0-2.6-.05c-1.42.71-1.18,2.75-.75,4,.28.8,1.55.45,1.27-.35Z"/><path d="M88.42,1c.21,17.6.31,35.19.39,52.79q.1,22.39.15,44.77,0,4.4,0,8.8c0,.65,1.32.65,1.32,0q0-12.55-.06-25.11Q90.16,56,90,29.79,89.9,15.4,89.74,1c0-.65-1.33-.65-1.32,0Z"/><path d="M80.1,30.3c1.28-2.93,4.65-10.19-.46-11.61-2-.55-4.28.44-6,1.36a28.32,28.32,0,0,0-2.79,1.79c-.34.24-1.5,1.32-1.85,1.3l.64.48a19.54,19.54,0,0,1,1.17-2.56c.29-.72.58-1.44.84-2.17a13.83,13.83,0,0,0,1.07-5c-.12-2.64-1.64-4.06-4.33-3.4-3.14.77-5.48,3.67-7.56,5.93-.54.58-1.08,1.16-1.64,1.72-.36.35-1.59,1.9-2.25,1.79-1.12-.19-.74-4.59-.86-5.44-.34-2.42-1.87-3.58-4.32-3.28-2.71.33-5.1,2.58-6.86,4.49-2.53,2.73-4.45,6-7,8.72-1.76,1.87-4.24,3.13-6.16,4.86-8.05,7.24-13.05,18-11.76,28.95A30.13,30.13,0,0,0,39.9,82.64,33.34,33.34,0,0,0,50,84.28a46.34,46.34,0,0,0,11.87-1.4c7.92-2.08,15.68-5.84,21-12.26.54-.65-.39-1.59-.93-.93-4.57,5.54-10.76,8.75-17.45,11a41.56,41.56,0,0,1-20.12,1.66A28.86,28.86,0,0,1,21.85,61.3c-2.39-9.95,1.07-20.46,7.76-28a39,39,0,0,1,6.44-5.79,21.22,21.22,0,0,0,4.84-4.76A54.1,54.1,0,0,1,47.52,15c2-1.79,6.92-4.47,7.29.11.12,1.54-.59,5.9,1.77,6.21a2.93,2.93,0,0,0,2.08-.86,38.3,38.3,0,0,0,4.05-4.1A19.56,19.56,0,0,1,67,12.56c.88-.51,2.41-1.25,3.46-.79.83.36,1,1.57,1,2.35A15.83,15.83,0,0,1,70,19.63c-.36.93-.76,1.84-1.13,2.76-.19.47-.64,1.06-.47,1.59a.68.68,0,0,0,.64.48c.74,0,1.63-.86,2.18-1.24a21.82,21.82,0,0,1,4.63-2.71c2.11-.81,5.17-1.09,5.24,2,.06,2.42-1.13,5-2.08,7.13-.34.77.8,1.44,1.14.67Z"/><path d="M79.83,30.82c6,3.62,8.78,11.55,9,18.33,0,.85,1.35.85,1.32,0C89.91,41.9,87,33.55,80.5,29.68a.66.66,0,0,0-.67,1.14Z"/><path class="cls-4" d="M30.21,60.17c0-.87,6.52-4,9.57-5.43a55,55,0,0,1,9.11-3.65c.3-.09.65-.3.9-.11a1.52,1.52,0,0,1,.49.91,9.06,9.06,0,0,1-1.88,7.34c-3,3.93-7.38,5.21-12.13,3.92a18.65,18.65,0,0,1-6-3"/><path d="M30.85,60.34c.17-.77,2.72-1.78,3.34-2.11,1.63-.87,3.29-1.67,5-2.46A72.14,72.14,0,0,1,48.3,52c2.94-.94.85,4.86.15,6A10.45,10.45,0,0,1,43,62.45c-4,1.38-9.17-.05-12.37-2.74-.65-.54-1.58.39-.93.93,6.25,5.26,16.56,5,20.38-3a8.88,8.88,0,0,0,.78-5.93c-.5-1.89-1.78-1.4-3.25-.93a75.73,75.73,0,0,0-9.55,4c-1.92.92-3.85,1.85-5.71,2.9-.82.46-2.6,1.22-2.83,2.29-.18.83,1.09,1.18,1.27.35Z"/><path class="cls-4" d="M75.85,38.41c-5.22,2.1-15.34,7.17-15.34,7.17-1.15.83-2.52,1.89-2.5,3.31a3.78,3.78,0,0,0,2.42,3,9.69,9.69,0,0,0,8.76-.5,11.13,11.13,0,0,0,5.38-5.86c.84-2,1.77-5.09,1.28-7.16"/><path d="M75.67,37.77c-3.32,1.35-6.56,2.89-9.78,4.44a42,42,0,0,0-6.1,3.08c-1.27.89-2.55,2.17-2.41,3.84s1.77,3,3.32,3.62c3.91,1.56,8.31.14,11.38-2.52s5.13-7.94,4.41-12c-.15-.83-1.42-.48-1.27.35.76,4.27-1.91,9.47-5.47,11.74a9.85,9.85,0,0,1-7.27,1.59c-1.38-.28-3.22-1-3.63-2.49s.86-2.57,2-3.28a59.92,59.92,0,0,1,5.51-2.7c3.19-1.53,6.39-3.07,9.66-4.4.78-.31.44-1.59-.35-1.27Z"/><path d="M54.1,60.39c-.26,1.8.34,3.52,2.43,3.53s3.14-2,2.95-3.91l-1.13.47c1.15,1.39,3.78,1.86,5,.3a2.57,2.57,0,0,0-1.32-4,.66.66,0,0,0-.35,1.27,1.21,1.21,0,0,1-.09,2.32,2.34,2.34,0,0,1-2.31-.84.66.66,0,0,0-1.13.47c.1,1.05-.09,2.36-1.34,2.58s-1.6-.74-1.44-1.84c.12-.83-1.15-1.19-1.27-.35Z"/><path d="M70.89,79.69C73.11,81.73,76,83,79,81.78a9.13,9.13,0,0,0,3.88-3.52c.73-1,1.38-2,2.67-2.35,1-.24,2.93-.1,3.39,1,.32.78,1.59.44,1.27-.35a3.6,3.6,0,0,0-3.19-2,4.86,4.86,0,0,0-4.59,2.08c-1.54,2-2.8,4.19-5.62,4.35a7.21,7.21,0,0,1-4.95-2.2c-.62-.57-1.56.36-.93.93Z"/><path d="M61,82.66c3.19,12,16.89,17.42,28.25,17.2a.66.66,0,0,0,0-1.32c-10.77.21-23.95-4.79-27-16.23a.66.66,0,0,0-1.27.35Z"/><path d="M88.87,61.19C84.4,60,80.81,62.77,81,67.49a6.16,6.16,0,0,0,2.58,5.1,5.45,5.45,0,0,0,5.9.16c.7-.47,0-1.61-.67-1.14a4.19,4.19,0,0,1-4.57-.16c-1.49-.92-2-3-1.91-4.67.29-3.51,2.69-5.22,6.14-4.33a.66.66,0,0,0,.35-1.27Z"/><path d="M61.1,82.78a18.1,18.1,0,0,0,14.08,8.65A15.72,15.72,0,0,0,90,84c.46-.72-.68-1.38-1.14-.67a14.38,14.38,0,0,1-13.64,6.81,16.72,16.72,0,0,1-12.95-8,.66.66,0,0,0-1.14.67Z"/><path class="cls-5" d="M28.55,66.62A4.13,4.13,0,0,1,28.41,71a11.07,11.07,0,0,1,3.84,2.67,11,11,0,0,1-.21-4.5,4.58,4.58,0,0,1-3.48-2.51"/><path d="M28,67a3.58,3.58,0,0,1-.14,3.68.66.66,0,0,0,.24.9,11.61,11.61,0,0,1,3.7,2.56.66.66,0,0,0,1.1-.64,11.12,11.12,0,0,1-.21-4.15c0-.32-.07-.75-.46-.81a4,4,0,0,1-3.09-2.21c-.34-.77-1.48-.1-1.14.67a5.15,5.15,0,0,0,3.88,2.81L31.39,69a13,13,0,0,0,.21,4.85l1.1-.64a12.5,12.5,0,0,0-4-2.77l.24.9a4.94,4.94,0,0,0,.14-5c-.39-.75-1.53-.09-1.14.67Z"/><path class="cls-5" d="M25.68,75.16a3,3,0,0,1,0,3.12A7.94,7.94,0,0,1,28.5,80.1a7.86,7.86,0,0,1-.26-3.23,3.29,3.29,0,0,1-2.56-1.72"/><path d="M25.11,75.49a2.38,2.38,0,0,1,0,2.46.67.67,0,0,0,.39,1A7.75,7.75,0,0,1,28,80.56a.66.66,0,0,0,1.1-.64,8.14,8.14,0,0,1-.24-3.05c0-.38-.34-.62-.66-.66a2.59,2.59,0,0,1-2-1.39c-.37-.76-1.51-.1-1.14.67a3.94,3.94,0,0,0,3.13,2l-.66-.66a9.17,9.17,0,0,0,.29,3.4l1.1-.64a9.41,9.41,0,0,0-3.11-2l.39,1a3.74,3.74,0,0,0,0-3.79.66.66,0,0,0-1.14.67Z"/><path d="M46.16,44.3v-.37a.9.9,0,0,0-.88-.88,1.64,1.64,0,0,0-1.49,1.1,7,7,0,0,1-1.17,1.76A.89.89,0,0,0,43,47.39a2.66,2.66,0,0,0,3.21-3.47.9.9,0,0,0-1.08-.61.89.89,0,0,0-.61,1.08c.29.75-.19,1.53-1.05,1.31l.39,1.47a8.5,8.5,0,0,0,1-1.32c.13-.21.24-.42.35-.63a2.21,2.21,0,0,0,.17-.35c.05-.19.15,0-.12,0l-.88-.88v.37a.88.88,0,0,0,1.76,0Z"/><path d="M54.22,40.7A3.32,3.32,0,0,0,57,41.91a2.23,2.23,0,0,0,1.49-.58,1.22,1.22,0,0,0,.2-1.55c-.34-.48-.9-.51-1.43-.6a20,20,0,0,0-2-.34A1.1,1.1,0,0,0,54,39.6a1,1,0,0,0,1,1.28c1.13.07,1.13-1.69,0-1.76h-.1l.76.44-.06-.1.09.68,0-.11-.4.53q-.38,0-.09.07l.23,0,.79.14.68.12.34.06q.53.16-.08-.3v-.47q.17-.15,0-.07a.81.81,0,0,1-.26,0,1.44,1.44,0,0,1-.52-.06,1.75,1.75,0,0,1-.92-.65.88.88,0,0,0-1.24,0,.9.9,0,0,0,0,1.24Z"/><path d="M88.65,57.23a19.47,19.47,0,0,1-1.53,4.07c-.39.75.75,1.42,1.14.67a21.06,21.06,0,0,0,1.66-4.38.66.66,0,0,0-1.27-.35Z"/><g class="cls-6"><path class="cls-4" d="M28.24,35.81C24.47,40.35,21.3,46.44,22,52.5c.06.48.86.72.95.13A42.05,42.05,0,0,1,28.6,36.09c.14-.22-.2-.49-.37-.28Z"/></g><g class="cls-6"><path class="cls-4" d="M48.34,14.73a14.71,14.71,0,0,0-5.84,6.91c-.27.63.63,1.19.94.55A30.42,30.42,0,0,1,48.52,15a.15.15,0,0,0-.18-.23Z"/></g><g class="cls-6"><path class="cls-4" d="M41.22,23.58a.54.54,0,0,0-.72.08.68.68,0,0,0-.11.63.34.34,0,0,0,.64,0h0s.09-.05.08,0a.56.56,0,0,0,.11-.11c.09-.12,0,0,0,0a.32.32,0,0,0,0-.55Z"/></g></g></g></svg>