<svg xmlns="http://www.w3.org/2000/svg" viewBox="0 0 108 108"><defs><style>.cls-1{isolation:isolate;}.cls-2{fill:#fcfcfc;opacity:0;}.cls-3{fill:#262727;}.cls-4{fill:#91c9e8;}.cls-5{mix-blend-mode:multiply;}.cls-6{fill:#606060;}.cls-7{fill:#ffd300;}.cls-8{fill:#fff;}.cls-9{opacity:0.2;}</style></defs><title>3</title><g class="cls-1"><g id="图层_2" data-name="图层 2"><rect class="cls-2" width="108" height="108"/><g id="_3" data-name="3"><path class="cls-3" d="M80,59.28a6.8,6.8,0,0,1,4.22,4,14.62,14.62,0,0,1-4.37.17l-2.7-.17a5,5,0,0,1-2.79-.74,2.06,2.06,0,0,1-.08-3.36C75.63,58.34,78.68,58.81,80,59.28Z"/><path class="cls-4" d="M25.93,83A15.82,15.82,0,0,0,28.4,90.5a12.48,12.48,0,0,0,6.33,4.88c1.74.61,4.78,1.2,10.53,2.52,2.17.5,5.39,1,7.42.1.7-.32,1.49.42,2.21.17a10.8,10.8,0,0,1,3.4-.53A66.5,66.5,0,0,0,71.88,96.4c2.85-.68,4.26-.53,7.15-1,3.87-.65,8.67-1.21,11.24-4.17,1.56-1.8,1.2-4.44,1.46-6.81.24-2.18.33-4.93.39-7.12.09-3.47-.45-7.81-2.49-10.62s-4.59-3-8.16-3.31-7.16.16-10.74.25c-8.74.21-17.32-2.12-25.81-4.22a50.82,50.82,0,0,0-9.09-1.63c-2.4-.15-6.06-.26-8.1,1.28-1.42,1.07-1.23,3-1.43,4.59-.39,3.21-.83,6.38-1,9.61A64.22,64.22,0,0,0,25.93,83Z"/><g class="cls-5"><path class="cls-4" d="M46.65,72.21c-1.64,2.24-1.41,5.08-1.47,7.85s.37,6.07.47,9a24.51,24.51,0,0,0,.88,5.69,5.34,5.34,0,0,0,4.9,3.63,8.71,8.71,0,0,0,2.92-1.06c1.44-.77,1.45-3.18,1.58-4.82.51-6.39.93-13.22-2.21-18.81A4.42,4.42,0,0,0,52,71.84c-1.32-.68-3.71-.58-4.7.52a10.78,10.78,0,0,0-2.09,4"/></g><g class="cls-5"><path class="cls-4" d="M83.21,66c-1.64,2.24-.71,5.3-.77,8.07s.74,6.48.85,9.41c.06,1.7.23,6.15.65,7.23.85,2.17-.08,3.21,2.25,3.3.71,0,2-1,2.6-1.32,1.44-.77,2.83-4.22,3-5.85.51-6.39,1.67-13.76-1.47-19.35a4.42,4.42,0,0,0-1.68-1.87c-1.32-.68-3.71-.58-4.7.52a10.78,10.78,0,0,0-2.09,4"/></g><path d="M57,84.94c4.2,0,8.42-.43,12.6-.72a74.13,74.13,0,0,0,12.66-1.8.66.66,0,0,0-.35-1.26,74.48,74.48,0,0,1-13,1.8c-4,.27-8,.65-12,.68a.66.66,0,0,0,0,1.31Z"/><path class="cls-6" d="M28.31,80.57a3.16,3.16,0,0,0,.41,2.12,3.13,3.13,0,0,0,.74.62L34.83,87c1.69,1.15,3.38,2.3,5.13,3.35a57,57,0,0,1,6.19,3.93c.06,0,.13.09.19.05a.18.18,0,0,0,.06-.12,84.93,84.93,0,0,0,1.74-10.71,1,1,0,0,0-.05-.51.88.88,0,0,0-.35-.33c-.53-.32-1.12-.53-1.66-.84a18.74,18.74,0,0,1-1.56-1.12c-2.94-2.13-6.75-2.61-10-4.24-1.88-.95-3.56-2.27-5.45-3.2-.69-.34-.48.72-.5,1.11l-.09,2.1Z"/><path class="cls-3" d="M33.39,77.22a3.87,3.87,0,0,0,1.46,2.61,3.61,3.61,0,0,0,3.44.23c.92-.58,1.22-1.89,1.73-2.86.92-1.74,1.27-4.35,2.32-6a5,5,0,0,1,4.43-2.7A8.77,8.77,0,0,1,50.38,70a9.61,9.61,0,0,1,4,4.76,27,27,0,0,1,1.36,3.85A32.14,32.14,0,0,0,61.65,91.5C63.8,94,65.73,94.26,69,93.91a3.21,3.21,0,0,0,2.41-1.25c.63-1,1-3,.44-4s-3.23-1.35-4-2.19c-1.42-1.55-1.34-3.1-1.85-5.14a13.56,13.56,0,0,0,8.05-2l.78,4.95a6.32,6.32,0,0,0,1,2.89A8.29,8.29,0,0,0,79,89.45a12,12,0,0,0,3.85.38,3.88,3.88,0,0,0,2.1-.84,2.3,2.3,0,0,0,1.25-2.14,3,3,0,0,0-.72-1.48,10.56,10.56,0,0,0-1.65-1.69,3.29,3.29,0,0,1-.87-.88,3.48,3.48,0,0,1-.17-1.91,8.23,8.23,0,0,0-2.46-6.33c-.4-.38-.87-.79-.89-1.34,0-.34.29-.64.27-1a29.7,29.7,0,0,0-1.07-6.38c-.4-1.07-1.66-1.94-2.11-3S76,60.68,75.38,59.8c-1.63-2.22-3.79-2.6-6.47-3.26a35.21,35.21,0,0,0-18.52.5C46.6,58.19,43,60,39.27,61.25c-.27.09-.35,2.44-.4,2.77A1.71,1.71,0,0,1,38,65.5a13.33,13.33,0,0,0-3,3.18A11.84,11.84,0,0,0,33.39,77.22Z"/><path d="M43.58,63.12c-7.75-.63-12.13,7.76-10.74,14.52.64,3.1,4.38,4.85,6.69,2.19,2.65-3.05,1.48-10.56,7.13-10.59a.66.66,0,0,0,0-1.31c-2.77,0-4.64,2.07-5.79,4.44a22.92,22.92,0,0,0-1.1,4,6.28,6.28,0,0,1-1.49,2.86,2.51,2.51,0,0,1-3.82-.81c-1.34-2.46-.47-7,.8-9.31a9,9,0,0,1,8.31-4.69c.84.07.84-1.24,0-1.31Z"/><path d="M66.73,81.86c2.82-.24,5.14-.64,7.47-2.38.67-.5,0-1.63-.66-1.13a12.11,12.11,0,0,1-6.81,2.2c-.83.07-.84,1.38,0,1.31Z"/><path d="M55.7,81.38a56,56,0,0,0,5.1,10.07c1.78,2.58,5.61,3.42,8.55,2.71,2.59-.62,4.41-3.53,2.56-5.88-1-1.25-2.86-1.36-3.78-2.57-.7-.93-2.49-5.26-1.43-6.15.65-.54-.28-1.47-.93-.93-1.7,1.43-.08,4.61.54,6.18a4.5,4.5,0,0,0,1.73,2.56c1.53.91,4.29,1.8,3,4.11-1,1.75-3.26,1.63-5,1.42a5.51,5.51,0,0,1-4.61-3A98.67,98.67,0,0,1,57,81c-.32-.77-1.59-.43-1.26.35Z"/><path class="cls-7" d="M59.49,67.23c1.41,2.69.68,6,1.2,9a2.71,2.71,0,0,0,.27.87,2.66,2.66,0,0,0,.65.71,9.24,9.24,0,0,0,2.05,1.29c-.08-1,.87-1.87,1.13-2.88a4.59,4.59,0,0,0-.17-2.24,30.25,30.25,0,0,0-1.73-5.49,7,7,0,0,1-.41-1c-.3-1.07,0-2.23-.13-3.33A29.64,29.64,0,0,0,59,65C58,65.46,59.15,66.59,59.49,67.23Z"/><path d="M78.46,74.34a7.39,7.39,0,0,1,3,4.4,22.42,22.42,0,0,1,.26,4.6.67.67,0,0,0,.65.65c2.74.24,4.34,4.09,1.14,5-2.11.59-5.7.17-6.94-1.82-1.37-2.19-.51-4.77-1.26-7.1a5,5,0,0,0-3.28-3.38c-.8-.27-1.15,1-.35,1.26,3.92,1.3,2,6.7,3.63,9.64,1.35,2.46,4.69,3.08,7.28,2.86,2-.16,3.85-1.13,4.07-3.3.23-2.4-2-4.27-4.28-4.47l.65.65c-.12-2,.15-3.86-.59-5.81a8.43,8.43,0,0,0-3.34-4.32c-.72-.44-1.38.69-.66,1.13Z"/><path d="M76.21,64.39a10.21,10.21,0,0,1,2.2,8.84.66.66,0,0,0,1.26.35,11.58,11.58,0,0,0-2.54-10.11c-.54-.65-1.46.28-.93.93Z"/><path class="cls-8" d="M66.41,66.09c-.2.31-.45.66-.82.7a1.13,1.13,0,0,1-.52-.09,5.34,5.34,0,0,1-2.71-2.25,24.74,24.74,0,0,1,3.14-1,30,30,0,0,0,3.18-1,6,6,0,0,1-1.05,1.77Z"/><path class="cls-8" d="M55.85,68.68a.5.5,0,0,0,.24.05.49.49,0,0,0,.28-.2,8.71,8.71,0,0,0,1.55-2.64.36.36,0,0,0,0-.31.35.35,0,0,0-.26-.13,8.63,8.63,0,0,0-2.5.13q-1.4.19-2.8.27c-.37,0-2-.15-1.58.64.25.47,2,.92,2.49,1.13Q54.56,68.18,55.85,68.68Z"/><path d="M46.59,69.13c3.52,1.17,6.36,2.85,7.7,6.48a29.21,29.21,0,0,1,1.41,9.71c0,2.47.06,5-.14,7.47s-.85,4.84-3.61,4.95c-.84,0-.84,1.34,0,1.31C58.08,98.79,57,90.13,57,86c0-3.88-.25-8-1.84-11.63s-4.67-5.28-8.24-6.47c-.8-.27-1.15,1-.35,1.26Z"/><path d="M34.16,67l1.88.15a.66.66,0,0,0,.65-.65A.67.67,0,0,0,36,65.8l-1.88-.15c-.84-.06-.84,1.25,0,1.31Z"/><path d="M34.06,65.67c-4.27-.35-5.82,4.13-5.46,7.68.08.83,1.4.84,1.31,0-.29-2.83.6-6.65,4.15-6.37.84.07.84-1.24,0-1.31Z"/><path d="M33.7,55.54c-9.84-.8-8.81,13.87-8.78,20.08,0,4.38.1,9.14,1.87,13.22,1.9,4.39,5.6,6.65,10.05,7.88A57.35,57.35,0,0,0,52,99a.66.66,0,0,0,0-1.31,55.87,55.87,0,0,1-14.77-2.26,14.46,14.46,0,0,1-7-3.7,14.67,14.67,0,0,1-3.45-8c-.78-5-.55-10.1-.37-15.1.18-4.7.83-12.37,7.31-11.84.84.07.84-1.24,0-1.31Z"/><path d="M78.24,64.21a15.83,15.83,0,0,1,8.27.79c3.34,1.47,4.33,5.82,4.63,9.12a55.63,55.63,0,0,1,.19,11.18,13.36,13.36,0,0,1-1.37,5C89,92,86.84,93,85,93.44c-.82.2-.47,1.46.35,1.26a9.92,9.92,0,0,0,5.11-2.83,9.75,9.75,0,0,0,1.88-4.54c1-4.52.59-9.74,0-14.31-.41-3.26-1.65-7.41-4.82-9-3-1.49-6.41-1.52-9.63-1.08-.83.12-.48,1.38.35,1.26Z"/><path d="M53.72,98.66a161.08,161.08,0,0,0,31.6-4c.82-.2.47-1.46-.35-1.26a159.21,159.21,0,0,1-31.26,3.91c-.84,0-.84,1.34,0,1.31Z"/><path d="M83.25,89.83a21,21,0,0,1,0,4.41c-.09.84,1.22.83,1.31,0a21,21,0,0,0,0-4.41c-.09-.83-1.4-.84-1.31,0Z"/><path class="cls-3" d="M83.82,37.33a27.46,27.46,0,0,1-.85,9.3,21.33,21.33,0,0,1-6.86,10.44,30.93,30.93,0,0,1-11.35,6.18A74.52,74.52,0,0,1,55,65.4a48.49,48.49,0,0,1-13.68.18c-7.34-1-9.91-2.86-12.78-4.64a22.8,22.8,0,0,1-7.05-8.07c-2.2-4.68-2.56-9.28-2-14.4.29-2.73,1.1-5.55.23-8.16-.72-2.16-2.47-3.82-3.67-5.76a1.67,1.67,0,0,1-.29-.7c-.05-.57,0-1.22.52-1.48,2.12-1,5.11.31,7.42.43.42,0,.79-.44,1.13-.68.58-.41.26-.93-.06-1.47a13.42,13.42,0,0,0-3-3.33c-1-.89-2.4-2.72-1.44-4a2.54,2.54,0,0,1,2-.92c4.48,0,8.62.92,14.68,2.67a.6.6,0,0,0,.67-.94c-.26-.31-.56-.6-.84-.89-.63-.64-1.23-1.57-.82-2.36.9-1.79,6-1.53,8.1-1.46a65.09,65.09,0,0,1,21.26,3.94,29.74,29.74,0,0,1,16,15.27A26.31,26.31,0,0,1,83.82,37.33Z"/><path d="M83.16,37.33c.54,8.12-2.28,15.35-8.82,20.33s-15.14,6.92-23.2,7.52c-6.6.5-14,0-19.84-3.36a21.31,21.31,0,0,1-10.94-14.7c-.75-4-.25-7.87.25-11.84a11.72,11.72,0,0,0-.23-5.16,16.6,16.6,0,0,0-2.76-4.5c-.56-.76-1.81-2.12-.48-2.86.7-.39,2.19-.05,2.89.06,1.21.2,2.85.89,4.07.55,2.87-.81,1.28-3.35,0-4.79-.95-1.06-3-2.24-3.24-3.72-.48-2.54,4-1.7,5.37-1.55,3.57.41,6.88,1.66,10.37,2.34.79.15,1.6.15,1.87-.77a1.26,1.26,0,0,0-.15-1c-.45-.8-2.25-1.73-1.46-2.86.59-.86,2.79-.84,3.67-.89,1.22-.06,2.44,0,3.65,0,8.66.31,18.3,1.55,25.76,6.3C77.1,21,82.38,28.77,83.16,37.33c.08.83,1.39.84,1.31,0a29.55,29.55,0,0,0-11-20c-6.3-5.06-14.37-7.07-22.25-8a59.51,59.51,0,0,0-11.1-.52c-1.79.13-5.19.54-4.75,3.1a3.27,3.27,0,0,0,.71,1.42c.2.25.87.7.67.91s-1.16-.23-1.37-.29c-2-.55-4-1.07-6-1.46a39,39,0,0,0-4.54-.61c-1.44-.1-3.18-.35-4.4.6-2.78,2.17,1,5.18,2.46,6.7.36.37,1.94,2,1.54,2.48s-1.53.35-1.95.32a13.48,13.48,0,0,1-1.55-.31c-1.49-.29-3.35-.68-4.77.07-3,1.57,1.1,5.39,2,6.88,2.56,4,.48,9.13.46,13.6,0,7.43,3,14.78,9.29,19.08,5.16,3.55,11.12,5,17.34,5.3A56.55,56.55,0,0,0,60.43,65a38.16,38.16,0,0,0,13.2-5.27,25,25,0,0,0,8.52-9.25,25.55,25.55,0,0,0,2.32-13.2C84.42,36.49,83.11,36.48,83.16,37.33Z"/><path class="cls-8" d="M42.5,42.12a8.58,8.58,0,0,0,2.87-.8c2.14-1.16,3.08-4.3,2.52-6.67a.9.9,0,0,0-.32-.59,3.14,3.14,0,0,0-1.76.13c-6.28,1.71-9.48,2.33-14.87,3.76a1.06,1.06,0,0,0-.51,1.91C32.19,41.41,38.59,42.52,42.5,42.12Z"/><path d="M42.5,42.78c2-.26,3.84-.84,5-2.59a7.44,7.44,0,0,0,1.1-5.28c-.42-2.34-2.55-1.44-4.27-1-2.47.66-4.95,1.27-7.43,1.87l-3.43.84a11.17,11.17,0,0,0-3.27.94c-1.39.9-.86,2.42.33,3.18,3.21,2,8.3,2.35,12,2,.83-.07.84-1.38,0-1.31a25.13,25.13,0,0,1-8.71-.84A12.65,12.65,0,0,1,32,40c-.83-.37-1.54-.85-.3-1.58a10.2,10.2,0,0,1,2.39-.61l2.22-.55c3.13-.76,6.24-1.6,9.36-2.36,1.41-.34,1.7-.36,1.74,1a6.25,6.25,0,0,1-.44,2.43c-.78,2-2.39,2.8-4.45,3.07C41.67,41.58,41.66,42.89,42.5,42.78Z"/><path class="cls-8" d="M63.79,36.21a5.74,5.74,0,0,1-2.43.64,6.25,6.25,0,0,1-6-4.21,1,1,0,0,1,0-.71A3.35,3.35,0,0,1,57,31c6.63-2.07,8.66-2.71,14.33-4.66,1.26-.43,1.7.09,1.3.9A22.31,22.31,0,0,1,63.79,36.21Z"/><path d="M63.46,35.65a5.19,5.19,0,0,1-5.33-.44,6.05,6.05,0,0,1-1.79-2c-.58-1.06-.2-1.17.82-1.53,2.81-1,5.71-1.78,8.54-2.7l3.69-1.24c.39-.13,1.74-.85,2.09-.72.77.28-.19,1.29-.47,1.71a21.26,21.26,0,0,1-7.56,6.93c-.75.39-.08,1.52.66,1.13a21.67,21.67,0,0,0,5.79-4.56c1.14-1.25,3.18-3.34,3.46-5.09.24-1.49-1.1-1.66-2.23-1.38-2.22.56-4.42,1.51-6.6,2.22S60,29.4,57.78,30.11c-1.29.4-3.4.77-3.07,2.53.78,4.21,6,5.72,9.42,4.14C64.89,36.43,64.22,35.3,63.46,35.65Z"/><path d="M43,29c-.28.54.54,1.08,1.2,1.42a4.61,4.61,0,0,0,2,.4c.41,0,1-.17.92-.61a.75.75,0,0,0-.36-.54C43.71,27.71,43,29,43,29Z"/><path d="M42.44,28.82c-.48,1.46,1.74,2.31,2.82,2.47a2.61,2.61,0,0,0,1.94-.24,1.08,1.08,0,0,0,.17-1.56c-.79-1-3.92-2.38-4.88-.8a.57.57,0,0,0,1,.58c-.06.1,0,0,.09-.05a1.79,1.79,0,0,1,1.1,0,5.35,5.35,0,0,1,1,.42c.14.08.53.23.6.4s-.11.14-.35.13a3.7,3.7,0,0,1-1.43-.31c-.21-.1-1-.48-.94-.77C43.77,28.43,42.67,28.13,42.44,28.82Z"/><path d="M55.8,26A3.47,3.47,0,0,0,54.14,28a.76.76,0,0,0,.14.79.9.9,0,0,0,.82,0,4.18,4.18,0,0,0,1.76-1.51,2.64,2.64,0,0,0,.47-.86c.12-.59-.22-.79-.62-.79A2.28,2.28,0,0,0,55.8,26Z"/><path d="M55.51,25.49c-1,.63-2.15,1.78-2,3.06.21,1.49,1.93.89,2.71.28s1.75-1.68,1.67-2.69c-.1-1.28-1.6-1.1-2.41-.66-.65.35-.07,1.34.58,1,.14-.07.48-.28.62-.21s.1-.07,0,.21a1.17,1.17,0,0,1-.16.28,5,5,0,0,1-1,1.14,2.16,2.16,0,0,1-.7.42c-.35.1-.26-.07-.14-.39a3.14,3.14,0,0,1,1.32-1.46C56.7,26.07,56.13,25.09,55.51,25.49Z"/><path d="M27.84,39.2a34.07,34.07,0,0,0,6.38-1.4c.82-.2.47-1.46-.35-1.26a32.42,32.42,0,0,1-6,1.36c-.84,0-.84,1.35,0,1.31Z"/><path d="M45.63,34.92a13.74,13.74,0,0,0,4.08-1.58c.71-.45.05-1.59-.66-1.13a12.61,12.61,0,0,1-3.76,1.45.66.66,0,0,0,.35,1.26Z"/><path d="M55.86,30.7a8,8,0,0,1-2.29.55c-.84,0-.84,1.35,0,1.31a9.18,9.18,0,0,0,2.64-.6c.79-.28.45-1.54-.35-1.26Z"/><path d="M69.06,27.8c1.62-.57,3.25-1.12,4.91-1.59A.66.66,0,0,0,73.62,25c-1.65.47-3.28,1-4.91,1.59-.79.28-.45,1.54.35,1.26Z"/><path d="M54.77,41.51l-1.32.41c-.8.25-.46,1.52.35,1.26l1.32-.41c.8-.25.46-1.52-.35-1.26Z"/><g class="cls-9"><path class="cls-8" d="M50.27,11c2.54.58,5.3,1.82,7.9,1.89a.37.37,0,0,0,.18-.68c-2.27-1.23-5.43-1.33-8-1.68-.3,0-.45.4-.13.47Z"/></g><g class="cls-9"><path class="cls-8" d="M61.48,13.7c4.87,2.06,8.89,5.16,13.12,8.26.3.22.75-.22.53-.53-3.2-4.28-8.5-6.63-13.51-8.06-.19-.05-.33.25-.14.33Z"/></g><path d="M61.77,64.8l2.45,1.94c.46.37,1.16,1.12,1.83,1s1.08-1.2,1.37-1.68l2.31-3.77c.44-.72-.69-1.38-1.13-.66L67.18,63.9c-.2.33-1.08,2.26-1.42,2.32-.51.09-2.54-1.93-3.07-2.35s-1.59.4-.93.93Z"/><path d="M57.26,65.27c-.3.58-1,2.53-1.55,2.75-.27.11-1.53-.64-1.86-.78l-1.39-.6c-.73-.32-1.46-.64-2.18-1s-1.42.77-.66,1.13c1.35.64,2.73,1.22,4.11,1.8.73.31,1.84,1.08,2.66.7,1-.48,1.52-2.44,2-3.37.38-.75-.75-1.41-1.13-.66Z"/><path d="M57.84,65.85a18,18,0,0,0,1.5,2.5.69.69,0,0,0,.74.3l2.51-.52a.66.66,0,0,0,.48-.63c-.05-.89-.1-1.78-.18-2.67s-1.38-.84-1.31,0,.12,1.78.18,2.67l.48-.63-2.51.52.74.3a18,18,0,0,1-1.5-2.5c-.37-.76-1.5-.09-1.13.66Z"/><path d="M59.42,68.11,60.06,77c.06.84,1.37.84,1.31,0l-.64-8.91c-.06-.84-1.37-.84-1.31,0Z"/><path d="M61.78,67.67c.77,2.82,1.7,5.61,2.73,8.35.3.78,1.56.44,1.26-.35-1-2.74-2-5.53-2.73-8.35a.66.66,0,0,0-1.26.35Z"/><path d="M60.38,77.58l2.78,2.09a.66.66,0,0,0,.9-.23l1.65-3.25c.38-.75-.75-1.41-1.13-.66l-1.65,3.25.9-.23L61,76.45c-.67-.51-1.33.63-.66,1.13Z"/><path class="cls-6" d="M22.13,85.21a8.62,8.62,0,0,0-3.51,1.58l16.24,13a.31.31,0,0,0,.41,0Q41,97.34,46.53,94.38a10.27,10.27,0,0,1-1.83-1c-.64-.49-1.15-1.11-1.79-1.6a13.12,13.12,0,0,0-2.09-1.17c-3.23-1.63-6-4-9-6a17.8,17.8,0,0,0-2.33-1.38,5,5,0,0,0-1.26-.49c-.41-.06-.44.07-.76.29A19.78,19.78,0,0,1,22.13,85.21Z"/><path d="M28.28,73.41l4.33,2.43a.61.61,0,0,0,.61-1l-4.33-2.43a.61.61,0,0,0-.61,1Z"/><path d="M39.89,79.19,48,83.24c.69.35,1.31-.7.61-1l-8.1-4.05c-.69-.35-1.31.7-.61,1Z"/><path d="M28,72.88c-.09,3.32-.21,6.64-.3,10a.61.61,0,0,0,1.21,0c.09-3.32.21-6.64.3-10a.61.61,0,0,0-1.21,0Z"/><path d="M47.71,82.56,46.07,94.14c-.11.76,1.06,1.09,1.17.32l1.64-11.58c.11-.76-1.06-1.09-1.17-.32Z"/><path d="M27.86,83.22,46.35,94.82c.66.42,1.27-.63.61-1L28.47,82.17c-.66-.42-1.27.63-.61,1Z"/><path class="cls-8" d="M22.81,87.93a14.77,14.77,0,0,0,1.34,1c3.5,2.37,6.19,5.74,9.55,8.3a.62.62,0,0,0,.26.14.63.63,0,0,0,.36-.08l4.1-1.87a14,14,0,0,0,3.14-1.77.57.57,0,0,0,.21-.25c.06-.2-.1-.4-.26-.55A16.65,16.65,0,0,0,39.31,91c-.69-.46-1.4-.88-2.12-1.3,0-.14-1.2-.7-1.36-.8l-1.46-.86L31.5,86.4c-.68-.4-1.87-1.45-2.69-1.38a3.73,3.73,0,0,0-1.11.51l-1.47.72Z"/><path d="M28.12,82.25l-9.7,4c-.71.29-.4,1.46.32,1.17l9.7-4c.71-.29.4-1.46-.32-1.17Z"/><path d="M18.16,87.22l16.51,13.33c.6.48,1.46-.37.86-.86L19,86.36c-.6-.48-1.46.37-.86.86Z"/><path d="M35.4,100.65,47,94.82c.7-.35.08-1.39-.61-1L34.79,99.6c-.7.35-.08,1.39.61,1Z"/><path d="M28.67,84.52c-2,.94-4.09,1.86-6,3a.61.61,0,0,0,.61,1c1.94-1.11,4-2,6-3,.71-.33.09-1.37-.61-1Z"/><path d="M22.79,88.63c3.58,3.19,7.44,6.09,11.23,9,.61.47,1.47-.38.86-.86-3.79-2.94-7.65-5.84-11.23-9-.58-.52-1.44.34-.86.86Z"/><path d="M28.67,85.56l13,8.26c.66.42,1.27-.63.61-1l-13-8.26c-.66-.42-1.27.63-.61,1Z"/><path d="M41.62,92.78c-2.5,1.29-5,2.65-7.47,3.94-.69.36-.08,1.4.61,1,2.5-1.29,5-2.65,7.47-3.94.69-.36.08-1.4-.61-1Z"/><path d="M40.67,76.81A2.34,2.34,0,0,1,41.44,79c-.15.76,1,1.09,1.17.32A3.58,3.58,0,0,0,41.53,76c-.57-.52-1.43.33-.86.86Z"/><path d="M30.67,80.62l1.55.83c.69.37,1.3-.68.61-1l-1.55-.83c-.69-.37-1.3.68-.61,1Z"/><path d="M30.27,82.49l1.51.87a.61.61,0,0,0,.61-1l-1.51-.87a.61.61,0,0,0-.61,1Z"/><path d="M35,82.65l1.4.74c.69.36,1.3-.68.61-1l-1.4-.74c-.69-.36-1.3.68-.61,1Z"/><path d="M34.19,84.81l1.44.75c.69.36,1.3-.68.61-1l-1.44-.75c-.69-.36-1.3.68-.61,1Z"/><path d="M38.93,84.74l1.4.74c.69.36,1.3-.68.61-1l-1.4-.74c-.69-.36-1.3.68-.61,1Z"/><path d="M38.14,86.9l1.44.75c.69.36,1.3-.68.61-1l-1.44-.75c-.69-.36-1.3.68-.61,1Z"/><path d="M42.7,86.65l1.4.74c.69.36,1.3-.68.61-1l-1.4-.74c-.69-.36-1.3.68-.61,1Z"/><path d="M41.91,88.81l1.44.75c.69.36,1.3-.68.61-1l-1.44-.75c-.69-.36-1.3.68-.61,1Z"/><path d="M87.94,64.28c-4.3-1.11-6.39,3.6-6.25,7.13,0,.84,1.34.84,1.31,0-.1-2.6,1.18-6.75,4.6-5.87a.66.66,0,0,0,.35-1.26Z"/><path d="M53.06,71.32a5.4,5.4,0,0,0-8.47,5.06c.11.82,1.42.83,1.31,0a4.1,4.1,0,0,1,6.5-3.93c.7.47,1.36-.67.66-1.13Z"/><g class="cls-5"><path class="cls-4" d="M29,70.36a7.7,7.7,0,0,1,2.68-3.73,4.93,4.93,0,0,1,3.21-.39,2.26,2.26,0,0,0,1,.08,1.9,1.9,0,0,0,.9-.65l.9-1a16.12,16.12,0,0,1-6.4-2.4c-.45-.29-1.36-1.19-1.8-.68-.79.92-.79,3.16-.79,3.64C28.59,68.37,29.3,68.88,29,70.36Z"/></g><path d="M74.57,59.26a10.58,10.58,0,0,1,10,4.44c.47.7,1.6,0,1.13-.66A11.86,11.86,0,0,0,74.57,58c-.82.11-.83,1.42,0,1.31Z"/><path d="M74.75,64a16.47,16.47,0,0,0,3.31.24.66.66,0,0,0,0-1.31,14.76,14.76,0,0,1-3-.19c-.82-.17-1.17,1.09-.35,1.26Z"/></g></g></g></svg>